# xmcd
#
# Track frame offsets:
# 182
# 13087
# 24657
# 36417
# 46607
# 60350
# 72725
# 84807
# 98692
# 107545
# 120300
# 132682
# 144295
# 158175
# 169225
# 184717
# 197780
# 207647
# 222437
# 237227
#
# Disc length: 3307 seconds
#
#
# Revision: 0
# Processed by: cddbd v1.4PL0 Copyright (c) Steve Scherf et al.
# Submitted via: FreeRIP 2.30 
#
DISCID=1a0ce914
DTITLE=Olimpo Cardenas - 20 tangos del recuerdo
DYEAR=1965
DGENRE=Tango
TTITLE0=Tango amargo
TTITLE1=Fume compadre
TTITLE2=Sombras
TTITLE3=Tomo y obligo
TTITLE4=Volver
TTITLE5=Ladrillo
TTITLE6=Noche de Reyes
TTITLE7=Mocosita
TTITLE8=Protero suba y diga
TTITLE9=Charlemos
TTITLE10=Silencio
TTITLE11=No te engañes corazon
TTITLE12=Cuesta abajo
TTITLE13=Caminito
TTITLE14=Uno
TTITLE15=Madre selva
TTITLE16=A media luz
TTITLE17=Mano a mano
TTITLE18=Cama vacia
TTITLE19=La ultima copa
EXTD=
EXTT0=
EXTT1=
EXTT2=
EXTT3=
EXTT4=
EXTT5=
EXTT6=
EXTT7=
EXTT8=
EXTT9=
EXTT10=
EXTT11=
EXTT12=
EXTT13=
EXTT14=
EXTT15=
EXTT16=
EXTT17=
EXTT18=
EXTT19=
PLAYORDER=
